<?xml version="1.0" encoding="utf-8"?>
<!-- Generator: Adobe Illustrator 25.3.1, SVG Export Plug-In . SVG Version: 6.00 Build 0)  -->
<svg version="1.1" id="Layer_1" xmlns="http://www.w3.org/2000/svg" xmlns:xlink="http://www.w3.org/1999/xlink" x="0px" y="0px"
	 width="269.69px" height="269.42px" viewBox="0 0 269.69 269.42" style="enable-background:new 0 0 269.69 269.42;"
	 xml:space="preserve">
<style type="text/css">
	.st0{fill:#7351D7;}
	.st1{fill:#7E42D2;}
	.st2{fill:#6661DA;}
	.st3{fill:#8834CF;}
	.st4{fill:#9610B8;}
	.st5{fill:#3EC8A8;}
	.st6{fill:#A512CB;}
	.st7{fill:#7F45D7;}
	.st8{fill:#8A36D3;}
	.st9{fill:#5CDFE5;}
	.st10{fill:#7ED758;}
	.st11{fill:#C8E264;}
	.st12{fill:#C8E364;}
	.st13{fill:#19E5D8;}
	.st14{fill:#3FCEA4;}
	.st15{fill:#1DDFD9;}
	.st16{fill:#5E7AE8;}
	.st17{fill:#A611CB;}
	.st18{fill:#5BDEE4;}
	.st19{fill:#5881E5;}
	.st20{fill:#3EC7A7;}
	.st21{fill:#3FD19E;}
	.st22{fill:#5783E6;}
	.st23{fill:#1DDDD9;}
	.st24{fill:#3CC0A9;}
	.st25{fill:#4F8BE2;}
	.st26{fill:#784BD7;}
	.st27{fill:#3EBBAC;}
	.st28{fill:#A111C6;}
	.st29{fill:#6C56D4;}
	.st30{fill:#6664DD;}
	.st31{fill:#41D697;}
	.st32{fill:#8240D5;}
	.st33{fill:#8D31D2;}
	.st34{fill:#21D3D8;}
	.st35{fill:#04E2F8;}
	.st36{fill:#9625CF;}
	.st37{fill:#1ABBE7;}
	.st38{fill:#04E3F3;}
	.st39{fill:#4C85E3;}
	.st40{fill:#9E1BCE;}
	.st41{fill:#389CE7;}
	.st42{fill:#557AE1;}
	.st43{fill:#7C47D6;}
	.st44{fill:#17BEE7;}
	.st45{fill:#695DD9;}
	.st46{fill:#9426CD;}
	.st47{fill:#8539D2;}
	.st48{fill:#2AAFEB;}
	.st49{fill:#478FE8;}
	.st50{fill:#6F59DB;}
	.st51{fill:#20BDEF;}
	.st52{fill:#4888E2;}
	.st53{fill:#2BAEEB;}
	.st54{fill:#537EE3;}
	.st55{fill:#4581D8;}
	.st56{fill:#5D71E0;}
	.st57{fill:#379FE8;}
	.st58{fill:#448DE3;}
	.st59{fill:#566ED5;}
	.st60{fill:#24C0CC;}
	.st61{fill:#13CAEF;}
	.st62{fill:#626ADE;}
	.st63{fill:#6B5DDA;}
	.st64{fill:#7251D6;}
	.st65{fill:#5B74E1;}
	.st66{fill:#527FE4;}
	.st67{fill:#5C6EDD;}
	.st68{fill:#05D1E6;}
	.st69{fill:#5375DB;}
	.st70{fill:#1DB8E7;}
	.st71{fill:#28B4EE;}
	.st72{fill:#24ABE0;}
	.st73{fill:#4095E8;}
	.st74{fill:#507EE0;}
	.st75{fill:#10D1EF;}
	.st76{fill:#6469DE;}
	.st77{fill:#5776E1;}
	.st78{fill:#7845CF;}
	.st79{fill:#45B097;}
	.st80{fill:#3D9AE9;}
	.st81{fill:#25B6EB;}
	.st82{fill:#29AAE5;}
	.st83{fill:#16C0E7;}
	.st84{fill:#6F56D9;}
	.st85{fill:#17BCE3;}
	.st86{fill:#4A88E5;}
	.st87{fill:#3C94E2;}
	.st88{fill:#6268DD;}
	.st89{fill:#852AC2;}
	.st90{fill:#8928C3;}
	.st91{fill:#1AC4EC;}
	.st92{fill:#8824BE;}
	.st93{fill:#5676DF;}
	.st94{fill:#53BF67;}
	.st95{fill:#0CCAE5;}
	.st96{fill:#16B2D5;}
	.st97{fill:#55864C;}
	.st98{fill:#74833A;}
	.st99{fill:#8DA046;}
	.st100{fill:#40C27B;}
	.st101{fill:#A5BB53;}
	.st102{fill:#2AA3DE;}
	.st103{fill:#0592A3;}
	.st104{fill:#008690;}
	.st105{fill:#1AC4F0;}
	.st106{fill:#0FD1F1;}
	.st107{fill:#3FCDA4;}
	.st108{fill:#3EC2AA;}
	.st109{fill:#5E6BDB;}
	.st110{fill:#40D29E;}
	.st111{fill:#2D3834;}
	.st112{fill:#31A7EA;}
	.st113{fill:#4C89E6;}
	.st114{fill:#5C7DE8;}
	.st115{fill:#7551D9;}
	.st116{fill:#6F5ADC;}
	.st117{fill:#38A2EC;}
	.st118{fill:#9621C9;}
	.st119{fill:#9B1FCE;}
	.st120{fill:#922BD1;}
	.st121{fill:#4098EA;}
	.st122{fill:#8040D3;}
	.st123{fill:#813DD2;}
</style>
<g>
	<g>
		<path class="st0" d="M36.1,94.16c-0.85-1.09-1.25-2.35-1.35-3.71c3.97-0.71,7.95-0.35,11.94-0.2c0.75,1.22,0.8,2.55,0.63,3.91
			c-0.22,0.44-0.17,1.04-0.56,1.35C44.49,97.32,37.98,96.47,36.1,94.16z"/>
		<path class="st1" d="M36.1,94.16c2.64,1.67,9.07,1.68,11.21,0c0.69,1.49,0.69,2.98,0.02,4.48c-3.51,1.38-6.98,2.33-10.2-0.68
			C36.53,96.77,36.03,95.54,36.1,94.16z"/>
		<path class="st2" d="M46.69,90.25c-3.95,1.62-7.94,1.19-11.94,0.2c-0.83-1.13-1.5-2.34-1.68-3.76c4.14,2.66,8.49,1.5,12.82,0.74
			C46.16,88.37,46.42,89.31,46.69,90.25z"/>
		<path class="st3" d="M37.14,97.97c3.32,1.38,6.81,0.36,10.2,0.68c0.15,1.32,0.13,2.61-0.63,3.77c-2.88-0.01-5.76-0.01-8.64-0.02
			C37.43,100.99,37.12,99.51,37.14,97.97z"/>
		<path class="st4" d="M38.26,103.93c1.69,2.31,1.49,4.99,1.62,7.64c0.08,1.75-0.71,3.69,0.84,5.22c-0.14,1.14-0.66,2.01-2.46,3.02
			C38.26,114.13,38.26,109.03,38.26,103.93z"/>
		<path class="st4" d="M40.7,116.74c0.52-2.9,1.88-5.39,3.73-7.64C43.95,112.01,42.52,114.47,40.7,116.74z"/>
		<path class="st5" d="M43.67,135.29c-2.3-1.76-3.2-4.27-3.74-6.97C41.62,130.41,42.84,132.74,43.67,135.29z"/>
		<path class="st6" d="M126.53,246.13c-0.96-0.25-1.92-0.51-2.88-0.76c-1.12-0.29-2.16-0.72-3-1.54c-1.15-0.74-2.6-0.78-3.71-1.61
			c-2.87-2.05-6.41-2.36-9.54-3.73c9.52-2.57,17.85-7.82,26.7-11.9c2.21-0.67,2.37,0.94,2.07,2.24c-1.28,5.55-2.47,11.15-4.48,16.49
			C130.56,248.3,128.47,247.27,126.53,246.13z"/>
		<path class="st7" d="M149.06,220.01c-2.72,10.33-5.46,20.66-8.15,31c-0.37,1.44-0.42,3.01-2.34,3.32
			c-1.46-0.12-2.29-1.12-3.03-2.22c3.78-8.39,5.32-17.46,8-26.19c0.62-2.02,0.95-4.15,3.23-5.09
			C147.45,220.28,148.17,219.92,149.06,220.01z"/>
		<path class="st8" d="M146.79,220.83c-1.29,1.43-1.73,3.22-2.21,5.03c-2.08,7.74-4.21,15.47-6.35,23.19
			c-0.39,1.42-0.68,3.01-2.68,3.06c-1.48-0.1-2.24-1.18-3.02-2.24c2.77-2.3,3.26-5.65,4.07-8.85c1.54-6.08,3.14-12.14,5.06-18.11
			C143.22,221.83,144.91,221.1,146.79,220.83z"/>
		<g>
			<path class="st9" d="M179.11,140.47c0,8.36-0.08,16.71,0.05,25.07c0.04,2.42-0.66,3.38-3.16,3.23c-2.98-0.18-6-0.21-8.97,0.01
				c-2.75,0.21-3.3-0.95-3.28-3.45c0.09-15.46,0.05-30.93,0.04-46.39c0-8.5-1.48-9.95-10.06-9.95c-1,0-2-0.01-2.99,0
				c-5.9,0.08-7.87,1.95-7.89,7.88c-0.05,15.96-0.09,31.93,0.04,47.89c0.03,2.99-0.61,4.37-3.87,4.03c-2.47-0.26-5-0.26-7.47,0
				c-3.2,0.33-4.26-0.6-4.22-4.03c0.21-15.34,0.09-30.68,0.09-46.02c0-8.27-1.5-9.74-9.86-9.74c-10.15,0-11.13,0.97-11.13,11.06
				c0,5.36-0.09,10.73,0.04,16.09c0.05,2.14-0.67,2.86-2.78,2.77c-3.36-0.14-6.74-0.12-10.1-0.01c-1.94,0.06-2.64-0.64-2.61-2.59
				c0.09-6.98-0.21-13.98,0.12-20.95c0.57-11.95,8.92-20.34,20.89-21.47c7.71-0.73,15.24-0.5,21.8,4.37
				c1.2,0.89,1.91,0.41,2.92-0.26c8.73-5.72,18.25-5.56,27.68-2.75c9,2.68,14.56,11.09,14.7,20.9
				C179.2,124.26,179.1,132.37,179.11,140.47z"/>
			<path class="st10" d="M50.7,200.41c5.14,2.21,10.29,4.41,15.43,6.62c1.02,0.44,2.37,0.83,2.03,2.24
				c-0.36,1.49-1.76,1.12-2.82,0.88c-16.38-3.77-32.15-9.04-45.94-19.03c-16-11.59-21.37-27.63-18.78-46.61
				C3.58,122.77,13.64,104.17,27,87.15c1.22-1.56,2.58-3.01,3.88-4.52c0.7,0.09,1.08,0.53,1.3,1.16c0.16,0.62,0.14,1.24,0.01,1.86
				c-1.65,7.11-1.14,14.23-0.12,21.35c-3.2,11.37-8.67,21.59-15.76,30.99c-4.59,5.51-8.25,11.37-7.69,19
				c0.2,2.75,1.01,5.31,1.83,7.88c0.95,3.27,2.52,6.24,4.4,9.05c5.49,7.34,12.24,13.26,20.14,17.88
				C39.95,195.18,45.12,198.16,50.7,200.41z"/>
			<path class="st10" d="M239.59,178.7c0.4-5.58,0.04-11.11-0.99-16.6c0.4-7.73,4.38-14.16,7.51-20.91
				c1.19-0.96,2.06-2.16,2.66-3.56c0.16-0.3,0.36-0.58,0.57-0.85c3.23-4.21,6.59-8.32,9.21-12.96c0.72-1.23,1.14-2.56,1.49-3.93
				c2.46-7.13,0.06-13.56-2.85-19.91c-4.22-8.98-11.64-14.93-19.55-20.33c-2.74-1.87-5.45-3.85-8.55-5.16
				c-1.29-0.93-2.78-1.56-4.04-2.55c-3.85-1.92-7.7-3.85-11.71-5.44c-3.46-1.38-6.94-2.74-10.38-4.16
				c-0.91-0.38-1.94-0.93-1.39-2.21c0.41-0.96,1.33-0.99,2.25-0.77c19.96,4.7,39.31,10.93,54.15,26.01
				c10.47,10.64,13.01,24.17,11.17,38.49c-2.94,22.96-13.38,42.56-27.94,60.18c-0.72,0.5-1.08,2-2.26,1.26
				c-0.96-0.6-0.05-1.51,0.18-2.27C239.55,181.61,238.89,180.09,239.59,178.7z"/>
			<path class="st11" d="M82.52,238.6c-7.17,1.03-12.8-1.96-17.6-6.9c-4.59-4.73-8.14-10.21-10.98-16.16
				c-0.43-3.06,1.43-1.66,2.7-1.38c2.14,1.89,4.3,3.78,6.64,5.42c6.97,4.89,14.67,6.36,22.7,3.58c9.28-3.22,17.87-1.68,26.32,2.5
				c2.23,1.1,4.53,2.08,6.62,3.45c0.6,0.39,1.27,0.92,0.94,1.81c-0.24,0.65-0.89,0.83-1.49,0.96c-1.85,0.4-3.72,0.25-5.59,0.25
				c-8.72,0.01-17.09,1.59-25.02,5.3c-0.86,0.37-1.77,0.59-2.64,0.92C84.26,238.65,83.42,239,82.52,238.6z"/>
			<path class="st12" d="M214.28,55.92c-0.33-0.38-0.65-0.76-0.98-1.14c-0.68-1.15-1.84-1.76-2.87-2.52
				c-3.31-2.2-6.44-4.68-10.24-6.07c-4.55-1.67-9.33-2.73-13.88-0.96c-13.13,5.1-24.63,1.25-35.74-5.69
				c0.4-2.13,2.17-1.64,3.53-1.75c3.09-0.24,6.22,0.27,9.3-0.36c7.37-0.98,14.41-3.05,21.02-6.48c0.94-0.44,1.89-0.16,2.84-0.02
				c8.09-1,13.98,2.9,18.97,8.64c2.18,2.5,4.34,5.05,5.75,8.11c1.06,1.73,1.73,3.67,2.92,5.32c0.13,0.18,0.19,0.39,0.16,0.61
				c0.52,0.65,1.31,1.27,0.73,2.21C215.43,56.42,214.82,56.46,214.28,55.92z"/>
			<path class="st13" d="M92.9,6.38c5.11-3.6,10.98-5.04,17.03-5.87c8.49-1.17,16.81-0.3,24.98,2.21c7.63,2.51,15.21,5.13,22.4,8.75
				c0.32,0.16,0.79,0.15,1.01,0.42c0.83,0.99,3.05,1.07,2.58,2.72c-0.42,1.49-2.28,1.21-3.61,1.22c-7.1,0.07-14.2,0.04-21.3,0.02
				c-2.47-0.01-4.57-0.84-6.54-2.33c-3.5-2.66-7.35-4.53-11.76-5.41c-3.08-0.62-5.91-0.3-8.78,0.62c-1.12,0.72-2.36,1.19-3.64,1.54
				c-1.55,0.25-2.98,0.88-4.41,1.48c-1.44,0.45-2.63,1.38-3.94,2.07c-1.91,1.03-3.31,2.73-5.14,3.87c-0.86,0.63-1.68,1.36-2.89,1.11
				c-0.24-0.06-0.49-0.11-0.7-0.22c-1.78-0.92-4.81-0.34-5.14-2.85c-0.28-2.18,2.28-3.3,3.73-4.7C88.63,9.26,90.95,8.05,92.9,6.38z"
				/>
			<path class="st14" d="M259.1,124.13c-2.4,5.09-5.9,9.4-9.7,13.49c-3.49-1.83-7.28-1.12-10.96-1.21
				c-13.89-0.33-9.83,2.01-16.13-10.04c-0.93-1-1.42-2.18-1.46-3.55c-1.4-4.67-0.76-5.68,4.19-5.8c4.69-0.11,9.33-0.18,14,1.16
				c2.97,0.86,6.27,0.53,9.49-0.39c3.87-1.11,8-1.97,11.57,1.17C260.66,120.85,259.68,122.45,259.1,124.13z"/>
			<path class="st15" d="M107.94,8.13c8.23-3.44,15.25-0.3,21.76,4.37c2.29,1.64,4.44,2.41,7.18,2.37c7.82-0.1,15.64-0.03,23.59-0.4
				c-3.36-2.99-7.59-4.33-11.46-6.28c-4.52-2.27-9.73-2.81-14.11-5.48C145.01,4.75,154.24,9.1,163.18,14
				c8.63,4.73,16.61,10.48,24.07,16.92c-0.7,0.18-1.4,0.35-2.1,0.53c-0.97,0.32-2.03,0.38-2.95,0.17c-6.33-1.4-12.62-0.3-18.92,0.18
				c-8.94-1.6-16.86-5.65-24.55-10.24c-1.7-1.45-3.5-2.78-5.41-3.95c-1.04-0.79-1.98-1.7-3.12-2.36c-1.01-0.77-1.94-1.65-3.07-2.26
				c-1.01-0.82-2.29-1.03-3.45-1.52c-0.28-0.17-0.54-0.36-0.79-0.58c-1-0.97-2.3-1.23-3.58-1.54c-2.74-0.68-5.47-0.02-8.21,0.05
				C109.98,9.18,108.81,9.03,107.94,8.13z"/>
			<path class="st16" d="M192.51,247.58c-7.66,12.92-19.01,20.14-33.91,21.54c-16.83,1.58-32.25-3.29-46.98-10.94
				c-0.28-0.36-0.25-0.7,0.08-1.02c7.83,2.69,15.91,0.97,23.88,1.35c1.52,0.07,3.35,0.49,4.13-1.58c0.15-0.35,0.41-0.58,0.75-0.73
				c0.75-0.17,1.4,0.1,2.03,0.47c0.86,0.53,1.69,1.11,2.61,1.55c1.07,0.54,2.31,0.43,3.41,0.86c1.61,0.65,2.98,1.95,4.9,1.69
				c2.82-0.08,5.64,0.28,8.44-0.26c0.67-0.24,1.34-0.47,2.01-0.71c1.43-0.4,2.93-0.62,4.24-1.4c0.87-0.42,1.66-0.95,2.39-1.58
				c1.02-0.83,2.21-1.36,3.34-2c0.28-0.18,0.57-0.33,0.86-0.49c1.04-0.55,2-1.24,3.07-1.74c1.83-1.33,3.73-2.14,6.13-1.59
				c2.15,0.5,4.05-0.12,5.55-1.95C190.17,248.16,191.03,247.11,192.51,247.58z"/>
			<path class="st17" d="M138.83,20.72c7.41,4.47,15.29,7.84,23.57,10.3c-0.33,1.32-1.49,1.56-2.54,1.9
				c-7.7,2.52-15.08,5.77-22.26,9.51c-2.89,1.29-5.77,2.57-8.66,3.86c-2.29,0.9-3.19-0.16-2.62-2.24c2.33-8.45,4-17.1,7.34-25.26
				C136,17.79,137.03,20.3,138.83,20.72z"/>
			<path class="st18" d="M90.99,156.99c0-3.83,0.14-6.94-0.05-10.04c-0.14-2.39,0.81-3.09,3.03-2.88c4.04,0.39,9.21-1.73,11.82,0.88
				c2.24,2.24,0.52,7.33,0.61,11.16c0.08,3.36-0.06,6.72,0.05,10.07c0.06,1.97-0.71,2.76-2.62,2.55c-0.12-0.01-0.25,0-0.37,0
				c-3.96-0.18-9.08,1.63-11.56-0.66C89.16,165.56,91.48,160.31,90.99,156.99z"/>
			<path class="st19" d="M86.22,238.58c7.07,1.88,14.12,1.04,21.18-0.08c3.62-0.17,6.82,1.04,9.82,2.94c1,1.04,2.33,1.48,3.65,1.93
				c1.17,0.54,2.37,1.02,3.39,1.83c1.46,2.85,0.95,3.88-2.41,4.04c-5.33,0.26-10.67,0.04-16,0.11c-1.33,0.02-2.73-0.35-4.13,0.58
				c2.68,3.41,7.57,3.76,9.96,7.39c-0.02,0.29-0.03,0.58-0.05,0.87c-10.81-4.89-20.28-11.76-29.11-19.58
				c0.64-0.21,1.27-0.43,1.91-0.64C85.14,237.81,85.75,237.99,86.22,238.58z"/>
			<path class="st20" d="M222.31,126.37c0.9,0.38,1.29,1.25,1.49,2.04c1.61,6.2,5.72,7.78,11.66,7c3.54-0.46,7.18-0.06,10.78-0.1
				c1.67-0.02,2.97,0.35,3.16,2.3v-0.03c-1.04,1.06-1.35,2.57-2.29,3.69c-3.62,6.62-6.21,13.67-8.52,20.83
				c-3.03-11.13-9.44-20.69-14.4-30.93C223.45,129.62,222.41,128.17,222.31,126.37z"/>
			<path class="st21" d="M259.83,119.6c-3.68-2.76-7.83-1.53-11.76-1.11c-3.22,0.35-6.41,0.62-9.57,0.07
				c-5.18-0.9-10.36-0.37-15.54-0.38c-3.65,0-1.87,2.86-2.12,4.63c-2.99-5.74-4.1-11.94-4.45-18.31c-0.07-1.26-0.15-2.57,1.4-3.09
				c1.57-0.52,2.63,0.24,3.48,1.46c2.35,3.37,4.78,6.69,7.88,9.44c3.93,3.49,8.37,5.88,13.75,5.9c6.5,0.02,10.04-3.56,10.47-10.12
				c0.23-3.59-0.86-6.86-1.99-10.16c1.34-0.51,1.72,0.61,2.33,1.35c1.86,3.94,2.31,7.99,1.12,12.25c-1.03,3.67-0.94,3.7,3.02,4.09
				c0.99,0.1,1.98,0.13,2.81,0.79c0.6,0.96,0.2,1.98,0.18,2.98C260.58,119.83,260.24,119.89,259.83,119.6z"/>
			<path class="st22" d="M192.51,247.58c-3.08,3.12-6.18,5.91-11.2,4.06c-1.29-0.48-2.08,2.08-3.8,1.92
				c-0.16-0.2-0.24-0.41-0.24-0.63c0-0.23,0.02-0.35,0.06-0.35c3.56-4.75,8.72-8.12,11.54-13.51c1.04-1.97,2.29-3.82,3.73-5.53
				c1.8-1.98,2.5-4.72,4.5-6.57c0.36-0.16,0.73-0.25,1.13-0.27c4.08,1.03,4.38,1.55,2.69,5.08c-0.63,1.32-1.29,2.61-1.61,4.05
				C197.76,240.16,195.44,244.04,192.51,247.58z"/>
			<path class="st23" d="M92.9,6.38c-1.86,3.01-5.52,4-7.59,6.77c-0.63,0.84-2.13,1.36-1.64,2.62c0.41,1.07,1.71,1.3,2.85,1.29
				c1.21-0.01,2.18,0.33,2.71,1.51c0.38,0.81,0,1.52-0.52,2.01c-5.93,5.56-9.9,12.58-14.34,19.25c-0.37,0.56-0.54,1.46-1.52,1.4
				c-1.35-1.16-2.84-2.2-3.56-3.94c0.05-1.71,1.29-2.96,1.77-4.5c2.71-5.67,6.31-10.79,9.85-15.95C83.94,12.25,87.98,8.81,92.9,6.38
				z"/>
			<path class="st24" d="M50.31,151.13c2.43,4.61,2.68,9.67,3.01,14.71c0.07,1.06-0.32,1.96-1.42,2.35
				c-1.2,0.42-2.18,0.03-2.99-0.89c-1.05-1.2-1.56-2.84-2.99-3.74c-3.5-5.49-8.16-9.62-14.43-11.57
				c-6.67-2.07-10.77-0.52-14.69,5.09c-0.36,0.28-0.7,0.27-1.04-0.04c0.02-3.85,3.05-5.21,5.7-6.88c5.02-1.88,9.66-0.48,14.38,1.4
				C40.64,153.47,45.59,154.34,50.31,151.13z"/>
			<path class="st25" d="M199.31,235.83c-0.25-1.3,0.12-2.5,0.83-3.52c2.31-3.27,0.8-4.55-2.48-4.99c-0.96-1.78,0.51-2.92,1.11-4.3
				c0.92-2.1,2.02-4.13,2.7-6.34c1.96-4.57,3.92-9.14,5.89-13.71c0.4-0.93,0.9-2,2.11-1.68c1.26,0.33,1.13,1.52,0.89,2.5
				C207.66,214.82,204.81,225.78,199.31,235.83z"/>
			<path class="st26" d="M123.74,10.86c1.41,0.21,2.93,0.17,3.77,1.67c-2.97,5.42-4.15,11.44-5.56,17.33
				c-1.31,5.45-3.26,10.7-4.59,16.14c-0.39,1.6-0.64,3.16-0.39,4.79c-1.63,0.98-3.37,1.55-5.3,1.35c-0.88-0.95-0.71-2.09-0.35-3.12
				c1.18-3.33,1.53-6.88,2.78-10.19c2.77-4.61,4.77-9.44,4.23-14.99c1.58-2.92,2.19-6.18,3.28-9.28
				C122.1,13.22,122.33,11.69,123.74,10.86z"/>
			<path class="st27" d="M15.9,157.02c0.3,0.02,0.6,0.04,0.9,0.06c-2.43,9.99,2.74,17.36,8.47,24.53c2.72,3.4,6.39,5.79,9.42,8.87
				c-0.02,0.6,1.99,1.41-0.18,1.8c-8.12-4.43-15.08-10.16-20.13-18.01c-0.8-1.25-1.42-2.6-2.08-3.93c-0.32-0.66-0.9-1.61-0.2-2.02
				c3.09-1.81,1.92-4.73,2.16-7.3C14.41,159.54,14.61,158.05,15.9,157.02z"/>
			<path class="st28" d="M222.43,170.49c0.28-7.78,4.21-14.06,8.43-20.35c0.05,6.87,0.45,13.62,1.36,20.33
				C228.96,172.24,225.69,172.22,222.43,170.49z"/>
			<path class="st29" d="M167.92,233.34c3.7,1.49,4.67,4.58,4.27,8.07c-0.42,3.65-2.74,6.09-6.34,6.84
				c-3.37,0.7-6.39,0.02-7.96-3.58c1.29-2.79,3.88-4.44,5.87-6.61C165.18,236.51,166.78,235.13,167.92,233.34z"/>
			<path class="st30" d="M154.32,218.36c0.64-0.63,1.4-0.78,2.26-0.61c1.05,1.15,0.99,2.5,0.52,3.81
				c-1.44,3.93-1.96,8.12-3.43,12.03c-1.43,3.77-2.65,7.59-2.42,11.71c-2.61,3.12-2.15,7.29-3.7,10.77
				c-0.57,1.28-0.34,3.58-2.94,2.73c-0.75-0.5-1.5-0.99-2.25-1.49c3.29-11.69,6.49-23.41,9.95-35.06
				C152.73,220.81,153.1,219.37,154.32,218.36z"/>
			<path class="st31" d="M253.1,99.4c-0.57-0.49-1.14-0.98-1.7-1.46c-5.3-9.26-12.68-16.5-21.58-22.27
				c-0.23-0.59-1.16-0.91-0.68-1.77c11.71,6.01,22.52,13.04,28.49,25.48c-0.15,0.09-0.3,0.17-0.45,0.26
				C255.81,99.69,254.45,99.58,253.1,99.4z"/>
			<path class="st32" d="M116.97,50.79c-2.13-0.42-1.52-1.79-1.14-3.15c2.8-9.85,5.57-19.71,8.39-29.55
				c0.61-2.11,0.08-4.95,3.28-5.56c1.34,0.29,2.27,1.15,3.05,2.22c-1.32,0.54-2.08,1.39-2.45,2.9c-2.37,9.68-5.41,19.19-7.74,28.89
				c-0.36,1.49-0.78,2.88-1.97,3.92C117.93,50.57,117.45,50.68,116.97,50.79z"/>
			<path class="st33" d="M118.41,50.46c2.77-10.56,5.47-21.15,8.37-31.67c0.49-1.78,0.19-4.9,3.78-4.04
				c1.28,0.38,2.25,1.18,3.05,2.22c-2.21,0.91-3.24,2.58-3.81,4.91c-2.02,8.29-4.67,16.41-6.63,24.71c-0.27,1.14-0.73,2.09-1.76,2.7
				C120.59,50.15,119.52,50.36,118.41,50.46z"/>
			<path class="st34" d="M69.77,37.28c1.01,1.23,3.01,1.67,2.99,3.72c0.65,1.68-1.88,2.79-0.82,4.55c-0.69,2.5-2.13,4.61-3.45,6.78
				c-1.27,2.13-2.35,4.35-3.17,6.7L65.33,59c-0.91,0.82-1.12,1.98-1.46,3.07l0.03-0.06c-0.92,1.03-0.89,2.49-1.63,3.6
				c-0.24,0.53-0.48,1.06-0.73,1.59c-1.78-0.07-1.55-1.42-1.34-2.43c1.96-9.22,4.64-18.23,8.4-26.89
				C68.82,37.41,69.2,37.14,69.77,37.28z"/>
			<path class="st35" d="M193.23,234.01c-4.36,6.99-8.98,13.78-15.69,18.81c-1.05,0.69-2,1.5-2.99,2.26l0,0
				c-3.42,1.1-2.79-1-2.34-2.96c0.13-0.33,0.31-0.63,0.54-0.9c0.93-0.97,2.42-1.18,3.21-2.35c6.32-4.58,11.52-10.29,16.31-16.4
				C193.59,232.36,193.77,232.96,193.23,234.01z"/>
			<path class="st36" d="M121.41,49.3c2.53-9.49,5.03-18.99,7.6-28.46c0.61-2.26,0.9-5.15,4.59-3.87c1.95,0.96,3.77,2.1,5.23,3.75
				c-1.97,0.18-3.01-1.72-4.71-2.14c-1.96,1.33-1.95,3.6-2.51,5.53c-1.87,6.49-3.83,12.96-5.42,19.54
				c-0.35,1.44-0.53,2.66,1.12,3.36C125.52,48.22,123.58,49.05,121.41,49.3z"/>
			<path class="st37" d="M167.92,233.34c0.13,0.7,0.47,1.37-0.24,2.02c-3.32,3.05-6.12,6.64-9.79,9.32
				c-2.26-3.19-1.8-6.39,0.44-9.24C160.85,232.22,164.21,231.67,167.92,233.34z"/>
			<path class="st38" d="M71.94,45.55c-0.44-0.03-1.43,0.73-1.13-0.39c0.4-1.45,1.28-2.78,1.95-4.16c2.9-4.09,5.22-8.54,8.07-12.69
				c2.47-3.6,5.89-6.26,8.39-9.74c0.75-0.5,1.5-0.99,2.25-1.49c1.53,2.06,1.2,4-1.19,5.75c-2.69,1.98-4.96,4.35-7.04,6.93
				C79.46,35.02,75.03,39.8,71.94,45.55z"/>
			<path class="st39" d="M24.75,170.59c-1.52-0.84-2.76-1.91-2.98-3.79c3.21-3.32,6.42-6.64,9.87-9.72
				c1.77,0.27,3.01,1.27,3.84,2.82c-0.5,3.73-3.92,5.17-6.05,7.6C28.22,168.88,27.18,170.9,24.75,170.59z"/>
			<path class="st40" d="M127.31,47c-1.91,0.15-3.05,0.01-2.28-2.59c2.4-8.08,4.52-16.25,6.76-24.38c0.32-1.15,0.5-2.66,2.32-1.45
				c-2.23,8.31-4.44,16.62-6.71,24.91c-0.42,1.55-1.04,2.99,1.54,2.8C128.57,46.92,127.99,47.06,127.31,47z"/>
			<path class="st41" d="M234.47,201.35c-1.39,2.61-3.46,4.53-5.99,6c-0.87-1.81,1.08-2.46,1.52-3.61c-3-0.84-5.68,0.74-8.53,1.12
				c0.47-1.64,1.25-3.12,2.27-4.48c1.86-3.03,7.57-4.52,10.63-2.79C236.53,198.81,234.79,200.09,234.47,201.35z"/>
			<path class="st42" d="M44.17,79.26c0.08,0.68,0.16,1.37,0.24,2.05c1.48,4.34-1.13,5.64-4.77,5.31c-2.86-0.26-6.4,1.04-7.92-2.93
				c-0.28-0.35-0.56-0.71-0.84-1.06c0.07-1.61,0.14-3.23,0.22-4.84C35.04,81.9,39.59,80.72,44.17,79.26z"/>
			<path class="st43" d="M24.75,170.59c3.91-3.23,7.46-6.82,10.73-10.69c1.11,0.75,1.43,1.86,1.4,3.12
				c-0.24,5.8-4.74,9.15-11.07,8.26C25.46,171.05,25.1,170.82,24.75,170.59z"/>
			<path class="st44" d="M212.65,215.32c2.05-2.21,4.1-4.42,6.16-6.62c1.72-1.88,3.7-2.58,6.18-1.53c1.44,0.61,1.54,1.36,0.49,2.4
				c-3.46,3.33-7.88,5.09-11.99,7.34C212.01,217,212.29,216.18,212.65,215.32z"/>
			<path class="st45" d="M114.11,38.83c0.76,4.73-1.98,8.81-2.43,13.31c-0.27,0.04-0.54,0.09-0.8,0.13
				c-4.25,0.62-4.91-0.17-4.05-4.48c0.34-1.72,1.35-2.86,2.56-3.93C110.96,42.19,112.54,40.51,114.11,38.83z"/>
			<path class="st46" d="M222.43,170.49c3.26-0.01,6.53-0.01,9.79-0.02c0.79,0.84,0.81,1.87,0.73,2.93
				c0.46,0.76,0.35,1.68-0.39,1.88c-3.39,0.92-6.84,1.84-10.16-0.29C221.55,173.48,221.77,171.99,222.43,170.49z"/>
			<path class="st47" d="M222.39,174.99c2.94-0.01,5.89-0.02,8.83-0.02c1.06,0,1.57-0.57,1.72-1.56c0.7,0.63,0.81,1.44,0.73,2.31
				c1.06,4.7,1.05,4.71-3.79,4.78c-6,0.08-6.3-0.08-7.36-3.97C222.48,176.01,222.43,175.5,222.39,174.99z"/>
			<path class="st48" d="M225.47,209.57c-0.69-2.97-2.97-1.79-4.74-1.74c-0.65,0.02-1.29,0.56-1.93,0.86
				c0.89-1.28,1.78-2.56,2.67-3.84c2.83-3.12,6.48-2.07,10.08-2.13c-0.3,2.19-2.72,2.72-3.07,4.62
				C227.72,208.42,226.75,209.2,225.47,209.57z"/>
			<path class="st49" d="M162.57,261.06c-3.14,1.61-6.5,0.34-9.74,0.73c-1.7-2.06-1.49-7.8,0.37-9.46c1.51-1.35,2.72,0.2,4.06,0.48
				c2.24,0.27,4.48,0.53,6.73,0.8c0.1,1.43-1.06,1.31-1.92,1.56c-1.08,0.18-2.25-0.51-3.23,0.16c-1.1,0.75-1.3,2.07-1.38,3.27
				c-0.08,1.4,1.09,1.39,2.07,1.5C160.61,260.22,161.77,260.06,162.57,261.06z"/>
			<path class="st50" d="M123.74,10.86c-1.01,3.38-2.01,6.75-3.03,10.13c-0.39,1.28-0.64,2.68-2.37,2.86
				c-0.55-1.22-1.1-2.43-1.64-3.65c0.28-3.25,1.62-6.23,2.47-9.33c0.87-3.17,2.92-0.71,4.48-0.53
				C123.74,10.5,123.77,10.68,123.74,10.86z"/>
			<path class="st51" d="M48.93,63.51c-0.37,1.46-1.26,2.63-2.2,3.76c-1.7,2.38-7.73,3.53-9.96,1.96c-1.45-1.02-0.22-1.95,0.01-2.91
				c1.59-2.21,3.5-4.07,6-5.24c-0.43,2.83,0.9,3.44,3.38,2.76C47.05,63.57,47.93,62.9,48.93,63.51z"/>
			<path class="st52" d="M44.17,79.26c-0.65,1.65-1.73,2.46-3.62,2.22c-1.45-0.18-2.96-0.21-4.4,0c-2.97,0.43-4.64-0.7-5.05-3.68
				c-0.28-1.73,0.15-3.28,1.2-4.67c0.49,0.34,0.74,0.83,0.89,1.38c0.21,1.37,0.34,3.01,2.21,2.85c2.63-0.22,5.88,1.57,7.61-2.05
				c0.34-0.46,0.72-0.85,1.37-0.59C44.31,76.23,44.24,77.75,44.17,79.26z"/>
			<path class="st53" d="M36.77,66.31c-0.19,1.44-0.35,2.77,1.87,2.43c2.71-0.41,5.74,0.97,8.08-1.47c-0.14,1.39-0.68,2.62-1.5,3.74
				c-1.67,2.4-8.95,3.76-10.93,1.81c-1.88-1.86,0.47-3.25,1.03-4.83C35.52,67.17,35.98,66.6,36.77,66.31z"/>
			<path class="st54" d="M157.26,252.81c-4.09-0.55-6.18,3.68-4.43,8.98c-1.97,0.19-3.19-1.09-4.49-2.24
				c-0.71-3.38,0.78-6.37,1.8-9.4c0.5-1.47,1.76-1.46,2.9-0.4C154.45,250.76,155.86,251.79,157.26,252.81z"/>
			<path class="st55" d="M162.52,216.78c0.22-0.1,0.44-0.28,0.67-0.28c1.75-0.02,3.87-1.12,5.02,0.97c1.2,2.19-1.04,3.2-2.09,4.58
				c-1.94,1.25-3.88,2.5-5.82,3.74C160.17,222.57,160.51,219.47,162.52,216.78z"/>
			<path class="st56" d="M153.05,249.74c-1.53-0.54-2.19-0.04-2.52,1.6c-0.57,2.77-1.44,5.47-2.18,8.2
				c-1.26-0.18-2.69,0.5-3.74-0.75c3.22-2.42,2.38-6.43,3.8-9.54c0.66-1.45-0.52-4.41,2.84-3.95
				C151.84,246.78,152.45,248.26,153.05,249.74z"/>
			<path class="st57" d="M35.34,67.98c-0.17,0.58-0.23,1.23-0.52,1.74c-1.16,2.03-0.68,3.01,1.7,2.72c2.92-0.35,6.16,1.12,8.72-1.44
				c0.01,1.31-0.27,2.55-0.85,3.72c-0.27,0.25-0.55,0.49-0.82,0.74c-3.84,1.49-7.63,2.35-11.17-0.73c-0.03-0.53-0.07-1.07-0.1-1.6
				C32.72,71.06,33.67,69.31,35.34,67.98z"/>
			<path class="st58" d="M234.47,201.35c0.85-2.59-0.07-3.47-2.75-3.21c-2.82,0.27-5.92-0.7-7.97,2.24
				c0.39-1.26,0.77-2.52,1.16-3.78c0.15-1.04,0.55-2.04,1.67-2.13c3.59-0.28,7.27-1.31,10.65,0.92c0.09,0.2,0.18,0.41,0.27,0.61
				C237.19,198.18,236.11,199.92,234.47,201.35z"/>
			<path class="st59" d="M109.39,43.87c-1.72,1.87-1.55,4.37-1.9,6.59c-0.46,2.9,2.15,1.34,3.38,1.81c-2.39,1.3-5.05,0.66-7.57,1.05
				c-0.88,0.14-1.7-0.31-1.97-1.3c-0.37-1.35,0.14-2.49,1.18-3.26C104.76,47.07,107.09,45.49,109.39,43.87z"/>
			<path class="st60" d="M69.77,37.28c-4.18,7.76-6.31,16.22-8.36,24.71c-0.43,1.77-1.33,3.52,0.14,5.23
				c-0.64,1.7-1.45,1.47-2.2,0.12c-0.21-0.38-0.13-0.99-0.02-1.46c2.7-11.77,5.78-23.4,11.86-33.99c0.25,0.15,0.36,0.34,0.33,0.55
				c-0.04,0.22-0.09,0.34-0.16,0.34C70.83,34.27,70.3,35.78,69.77,37.28z"/>
			<path class="st61" d="M48.93,63.51c-1.23,0.47-2.13,1.73-3.66,1.47c-1.4-0.24-3.29,0.74-4.14-0.57
				c-0.86-1.34,1.57-1.94,1.64-3.34c0.27-0.19,0.54-0.39,0.81-0.58c1.5-0.77,2.79-2.18,4.59-2.06c1.23,0.08,2.8,0.16,2.9,2.06
				C50.64,61.69,49.95,62.72,48.93,63.51z"/>
			<path class="st62" d="M123.64,10.34c-2.56-0.8-3.89-0.25-4.15,2.81c-0.21,2.49-1.04,5.02-2.8,7.04
				c-1.23-1.01-2.46-2.02-3.68-3.04c2.32-2.39,2.17-5.93,4-8.56C118,8.48,119,8.25,119.94,8.8C121.35,8.91,122.71,9.1,123.64,10.34z
				"/>
			<path class="st63" d="M225.5,192.89c-0.05-1.43-0.11-2.86-0.16-4.29c-1.16-4.07,0.25-5.53,4.6-5.73
				c2.29-0.11,4.69-0.51,6.74,1.07l0.26,0.1c0.79,0.76,2.06,1.33,1.08,2.78c-2.12,1.75-4.67,0.86-7.02,1.18
				c-1.3,0.18-3.05-0.74-3.74,1.29c-0.1,0.93-0.16,1.86-0.47,2.75C226.53,192.58,226.21,193.02,225.5,192.89z"/>
			<path class="st2" d="M102.14,36.53c-1.29-0.32-2.41-0.85-2.9-2.22c4.25-3.14,7.96-6.9,11.73-10.57c1.14,0.65,1.54,1.7,1.58,2.94
				c0.16,0.33,0.17,0.67,0.03,1.01c-3.05,3.07-6.14,6.1-9.48,8.86C102.79,36.73,102.46,36.71,102.14,36.53z"/>
			<path class="st64" d="M236.68,183.93c-2.21,0.01-4.42,0.14-6.63,0c-3.4-0.21-5.15,1.08-4.72,4.66c-0.72-0.95-0.7-2.06-0.68-3.16
				c-0.84-5.07-0.75-5.33,4.06-5.14c2.44,0.09,5.29-1.24,7.26,1.44C236.52,182.37,236.94,183.04,236.68,183.93z"/>
			<path class="st65" d="M226.17,192.18c0-1,0-1.99,0-2.99c3.32-1.95,6.92-1.39,10.31-0.63c2.73,0.61,2.14,3.09,1.69,5.17
				c0.13,0.87,0.06,1.67-0.68,2.27l-0.2-0.2c-0.84-2.27-2.72-2.48-4.77-2.57C230.37,193.14,228.07,193.81,226.17,192.18z"/>
			<path class="st66" d="M226.17,192.18c2.6,0,5.22,0.18,7.81-0.04c2.91-0.24,3.85,0.94,3.31,3.65c-4.18-0.5-8.42-1.99-12.38,0.8
				c-0.24-1.31,0.2-2.51,0.59-3.71C225.72,192.65,225.95,192.42,226.17,192.18z"/>
			<path class="st67" d="M153.66,233.59c-0.44-3.93,0.89-7.56,2.1-11.16c0.53-1.57,0.88-3.06,0.81-4.68
				c0.42-0.07,0.84-0.13,1.25-0.2c1.7-0.62,2.53,0.28,2.11,1.74c-1,3.46-1.01,7.27-3.38,10.29
				C155.59,230.91,154.63,232.25,153.66,233.59z"/>
			<path class="st68" d="M51.07,60.48c-2.49-2.47-4.99-0.68-7.48,0c3.49-3.31,7.78-5.34,12.01-7.45c0.97-0.6,1.58-0.5,1.57,0.81
				C55.13,56.06,53.1,58.27,51.07,60.48z"/>
			<path class="st69" d="M156.56,229.57c0.83-3.35,1.11-6.83,2.48-10.04c0.56-1.31,0.06-1.85-1.21-1.98
				c1.47-0.81,3.06-0.93,4.69-0.77c-0.79,2.99-0.76,6.19-2.23,9.01C159.28,227.28,158.03,228.53,156.56,229.57z"/>
			<path class="st70" d="M232.81,102.99c0.28-3.15,2.36-4.52,5.14-5.2c1.32-0.12,2.86-1.07,3.58,0.99
				c-1.58,3.38-3.96,5.91-7.62,7.04C232.12,105.43,232.43,104.23,232.81,102.99z"/>
			<path class="st71" d="M161.8,254.33c0.78-0.08,1.67,0.14,2.19-0.73c2.01-0.52,4.01-1.05,6.02-1.57c0.22,0.31,0.24,0.64,0.09,0.98
				c-0.23,0.27-0.49,0.5-0.79,0.69c-3.7,2.24-3.78,2.7-0.81,5.08c-1.14,1.49-2.78,1.55-4.44,1.52c-1.4,0.42-3.17,1.02-3.95-0.43
				C158.99,257.76,160.42,255.94,161.8,254.33z"/>
			<path class="st72" d="M31.63,157.08c-2.46,4.08-5.61,7.47-9.87,9.72c-1.07-1.84-1.17-3.68-0.02-5.52
				c2.89,0.32,5.17-1.63,5.15-4.39C28.51,156.01,30.09,156.21,31.63,157.08z"/>
			<path class="st73" d="M98.06,32.13c-0.49-0.41-0.6-0.93-0.4-1.52c3.23-2.88,6.65-5.58,8.91-9.38c1.17-0.2,2.14,0.15,2.87,1.1
				c0.68,0.86,0.38,1.68-0.21,2.38c-2.41,2.87-5.13,5.44-7.95,7.9C100.03,33.69,99.01,33.12,98.06,32.13z"/>
			<path class="st74" d="M98.06,32.13c0.8,0.11,1.68,0.95,2.4,0.15c2.99-3.32,7.03-5.69,8.98-9.95c0.83,0.13,1.28,0.67,1.54,1.42
				c-2.79,4.77-6.52,8.49-11.73,10.57C98.52,33.76,98.04,33.08,98.06,32.13z"/>
			<path class="st75" d="M83.24,29.77c0.88-3.04,3.45-4.8,5.68-6.54c2.24-1.75,3.03-3.54,2.55-6.14c1.84-1.11,2.87-3.37,5.23-3.76
				c0.54,3.87-1.76,6.22-4.44,8.38C89.26,24.4,86.25,27.08,83.24,29.77z"/>
			<path class="st76" d="M238.18,193.74c0.48-3.56-1.06-4.93-4.62-4.58c-2.44,0.24-4.92,0.04-7.38,0.04
				c-0.21-2.19,1.21-2.17,2.81-2.28c3-0.2,6.11,0.79,9.01-0.72c0.95,0.38,0.23,1.37,0.7,1.92
				C238.78,190.01,239.33,191.95,238.18,193.74z"/>
			<path class="st77" d="M116.93,8.87c0.52,2.58-1.15,4.67-1.59,7.04c-0.24,1.33-1.41,1.1-2.33,1.25c-2.4-0.35-4.79-0.71-7.19-1.07
				c0.34-1.69,1.78-1.25,2.87-1.51c2.42,0.1,3.48-1.35,4.01-3.46C113.27,8.83,114.51,7.75,116.93,8.87z"/>
			<path class="st78" d="M235.97,181.73c-3.07-1.44-6.34-0.78-9.5-0.66c-3.06,0.12-1.3,2.85-1.82,4.36
				c-1.31-2.83-2.12-5.77-2.13-8.91c1.24,2.3,9.33,4.39,10.96,2.71c0.9-0.93-0.1-2.34,0.19-3.51
				C234.77,177.6,235.71,179.53,235.97,181.73z"/>
			<path class="st79" d="M34.52,192.29c0.86-0.52,0.13-1.2,0.18-1.8c5.33,3.31,10.67,6.62,16,9.92
				C44.55,199.2,39.49,195.84,34.52,192.29z"/>
			<path class="st80" d="M234.37,105.4c2.25-2.01,4.5-4.02,6.75-6.03c0.57-0.91,1.25-1.49,2.36-0.78c0.22-0.03,0.43,0.02,0.62,0.13
				c-1.12,3.84-7.51,9.72-10.59,9.75h0.03C233.08,107.25,232.99,106.13,234.37,105.4z"/>
			<path class="st81" d="M100.45,11.11c1.44-0.66,2.76-1.7,4.49-1.52c-0.72,2.41-1.93,4.59-3.21,6.73c-0.41,0.29-0.96,0.4-1.21,0.9
				c-1.35,1.06-2.91,1.69-4.55,2.16C96.76,16.24,97.81,13.24,100.45,11.11z"/>
			<path class="st82" d="M106.57,21.23c0.44,0.65,0.7,1.34,0.05,1.99c-2.52,2.52-5.03,5.05-7.61,7.51c-0.21,0.2-0.89-0.07-1.34-0.12
				c-0.5-1.6-0.56-3.15,0.5-4.58c2.9-0.01,5.72-2.49,5.16-4.54C104.35,20.67,105.44,20.76,106.57,21.23z"/>
			<path class="st83" d="M26.89,156.89c0.37,0.05,0.74,0.12,1.11,0.15c0.57,0.05,1.11,0.39,0.66,0.88
				c-1.86,1.97-3.39,4.43-5.98,5.44c-0.9,0.35-0.63-1.34-0.93-2.08C22.43,158.61,24.27,157.29,26.89,156.89z"/>
			<path class="st84" d="M247.08,101.07c0.83,0.42,0.91,1.19,0.92,1.99c0.16,0.33,0.16,0.67,0.02,1c-2.44,3.2-5.13,6.15-8.54,8.36
				c-0.7,0.06-1.41,0.17-2.07-0.17c-0.63-0.05-1.16-0.24-1.42-0.88C239.83,108.09,243.33,104.45,247.08,101.07z"/>
			<path class="st85" d="M103.32,21.49c0.62,0.37,3.01-0.51,1.19,1.58c-1.28,1.47-2.72,2.81-4.14,4.16c-1.89,1.8-2.13,0.4-2.21-1.2
				C98.98,23.49,100.62,21.89,103.32,21.49z"/>
			<path class="st86" d="M233.52,108.47c4.5-2.2,7.23-6.32,10.59-9.75c0.26,0.06,0.51,0.11,0.77,0.17c0.55,0.62,0.76,1.43,0.29,2.04
				c-2.68,3.52-5.63,6.79-9.38,9.22c-0.43,0.28-0.95,0.06-1.35-0.29C233.81,109.62,233.52,109.14,233.52,108.47z"/>
			<path class="st87" d="M100.53,17.22c0.23-0.31,0.45-0.62,0.68-0.93c2.02-1.38,3.96-2.72,4.86-5.27c0.64-1.82,2.19-2.88,4.36-2.11
				c0.9,2.59-0.53,4.57-1.72,6.62c-0.96,0.18-2.05-0.24-2.88,0.57C104.06,16.47,102.29,16.85,100.53,17.22z"/>
			<path class="st88" d="M247.08,101.07c-2.81,4.39-6.26,8.09-11.1,10.3c-0.27-0.24-0.55-0.49-0.82-0.73
				c4.11-3.09,7.07-7.4,11.2-10.46C246.6,100.47,246.84,100.77,247.08,101.07z"/>
			<path class="st89" d="M25.81,171.28c5.5-0.08,9.17-2.81,11.07-8.26c1.27,3-0.13,5.31-2.21,7.17
				C32.07,172.52,29.01,172.91,25.81,171.28z"/>
			<path class="st90" d="M112.36,27.61c0.07-0.31,0.14-0.61,0.2-0.92c1.45,3.31,0.37,6.09-2.02,8.38c-2.39,2.29-5.22,3.17-8.4,1.47
				c0.22-0.04,0.43-0.08,0.65-0.11C107.23,34.85,110.28,31.76,112.36,27.61z"/>
			<path class="st91" d="M100.45,11.11c-1.79,2.6-2.03,6.03-4.48,8.27c-1.06,1.05-2.26,1.9-3.71,2.34c2.28-2.37,3.17-5.48,4.44-8.38
				C97.83,12.37,98.85,11.25,100.45,11.11z"/>
			<path class="st34" d="M71.36,32.77c-0.06-0.29-0.11-0.59-0.17-0.88c2.43-5.54,5.41-10.72,9.72-15.05
				c-1.2,4.07-4.63,6.81-6.32,10.61C73.74,29.33,72.45,31,71.36,32.77z"/>
			<path class="st92" d="M237.41,112.25c0.75-0.04,1.5-0.09,2.25-0.13c4.09-1.36,6.69-4.18,8.13-8.17c0.07-0.3,0.14-0.59,0.21-0.89
				c1.52,2.96,0.62,5.56-1.45,7.75C243.95,113.55,240.75,113.66,237.41,112.25z"/>
			<path class="st93" d="M246.36,100.17c-3.54,3.69-6.51,8-11.2,10.46c-0.24-0.26-0.48-0.51-0.72-0.77
				c4.3-2.88,8.39-5.95,10.44-10.97C245.65,98.99,246.14,99.42,246.36,100.17z"/>
			<path class="st94" d="M213.35,66.49c4.38,0.9,8.28,2.91,12.07,5.18c-0.14,0.35-0.4,0.57-0.76,0.68
				C220.89,70.39,217.12,68.44,213.35,66.49z"/>
			<path class="st95" d="M193.23,234.01c-0.03-0.69-0.29-1.24-0.96-1.54c1.25-2,1.89-4.38,3.78-5.97c0.75-0.22,1.08,0.05,0.96,0.84
				C196.44,229.96,194.8,231.97,193.23,234.01z"/>
			<path class="st96" d="M197.01,227.35c-0.32-0.28-0.64-0.56-0.96-0.84c1.8-3.27,3.61-6.55,5.41-9.82
				c-0.22,3.92-2.75,7.01-3.81,10.63C197.44,227.33,197.22,227.34,197.01,227.35z"/>
			<path class="st97" d="M238.7,188.12c-0.23-0.64-0.47-1.28-0.7-1.92c-0.35-0.73-0.7-1.45-1.05-2.17c3.06-0.69,1.08-3.88,2.64-5.32
				c0.31,2.08,0.1,4.13-0.67,6.44c1.02-0.49,1.66-0.8,2.3-1.11C240.94,185.74,239.24,186.57,238.7,188.12z"/>
			<path class="st98" d="M214.28,55.92"/>
			<path class="st98" d="M215.06,53.62"/>
			<path class="st99" d="M56.21,214.7"/>
			<path class="st100" d="M224.66,72.35c0.25-0.22,0.5-0.45,0.76-0.68c1.24,0.74,2.48,1.48,3.72,2.22c0.23,0.59,0.45,1.18,0.68,1.77
				C228.1,74.56,226.38,73.45,224.66,72.35z"/>
			<path class="st60" d="M65.32,59.03c0.17-2.65,1.18-4.91,3.17-6.7C67.83,54.76,66.74,56.98,65.32,59.03z"/>
			<path class="st101" d="M214.9,53"/>
			<path class="st101" d="M211.99,47.68"/>
			<path class="st102" d="M243.49,98.59c-0.79,0.26-1.57,0.52-2.36,0.78c-0.29-2.07-2.04-1.21-3.17-1.58
				C239.96,96.93,241.9,96.53,243.49,98.59z"/>
			<path class="st102" d="M234.37,105.4c-0.27,1.02-0.55,2.05-0.82,3.07c-1.37-1.68-1.71-3.49-0.74-5.48
				C232.98,104.02,232.79,105.29,234.37,105.4z"/>
			<path class="st103" d="M212.65,215.32c0.28,0.53,0.56,1.06,0.83,1.6c-0.71,0.7-1.47,1.27-2.62,1
				C210.82,216.56,211.83,216,212.65,215.32z"/>
			<path class="st104" d="M55.6,53.03"/>
			<path class="st60" d="M62.28,65.63c0-1.45,0.25-2.78,1.63-3.6C63.74,63.39,63.5,64.73,62.28,65.63z"/>
			<path class="st105" d="M170.04,252.8c-0.01-0.26-0.02-0.51-0.03-0.77c0.84-0.83,1.87-1.26,3.02-1.44
				c0.22,0.15,0.29,0.3,0.23,0.47s-0.13,0.25-0.19,0.25l-0.03,0.04C172.28,252.33,171.57,253.41,170.04,252.8z"/>
			<path class="st101" d="M213.3,54.78"/>
			<path class="st106" d="M173.07,251.31c-0.02-0.24-0.03-0.48-0.04-0.72c0.77-0.92,1.76-1.48,2.92-1.72
				C175.65,250.46,174.16,250.65,173.07,251.31z"/>
			<path class="st60" d="M63.87,62.08c-0.22-1.36-0.01-2.52,1.46-3.07C65.26,60.23,64.74,61.24,63.87,62.08z"/>
			<path class="st5" d="M50.31,151.13c0.19,1.91-0.32,3.01-2.6,2.94c-4.89-0.15-9.7,0.29-14.36-2.35c-3.69-2.09-8.05-2-12.22-0.68
				c-2.32,1.11-4.8,1.05-7.29,1.1c-3.8,0.08-4.41,0.99-4.11,4.85c0.22,2.75,1.94,5.5,0.16,8.3c-4.51-9.24-2.18-20.2,5.9-27.75
				c0.98-1.51,2.4-1.95,4.14-1.95c5.07-0.01,10.16-0.15,15.22,0.06c2.88,0.12,5.64-1.09,8.51-0.39
				C46.79,140.17,48.99,145.46,50.31,151.13z"/>
			<path class="st107" d="M43.67,135.26c-4.61,2.22-9.56,1.08-14.36,1.43c-4.5,0.33-9.11-1.11-13.51,0.85
				c3.67-6,8.03-11.6,10.7-18.19c1.57-3.87,3.1-7.77,4.65-11.65c2.16,7.2,5.54,13.88,8.77,20.62c1.18,2.36,2.07,4.87,3.74,6.97
				L43.67,135.26z"/>
			<path class="st108" d="M9.9,165.29c-0.46-2.78-0.89-5.57-1.37-8.34c-0.77-4.45,0.4-5.9,4.82-5.91c2.6-0.01,5.2,0,7.79,0
				c-2.04,1.74-4.28,3.3-5.23,5.99c-0.35,2.91-1.46,5.8-0.23,8.77c0.15,0.37-0.04,1.27-0.25,1.33c-5.42,1.68-0.97,4.74-1.03,7.15
				C11.94,171.75,10.53,168.71,9.9,165.29z"/>
			<path class="st109" d="M31.71,83.69c3.01,3.21,6.9,1.66,10.41,1.76c2.67,0.07,2.15-2.39,2.28-4.14c0.81,1.96,1.47,3.96,1.5,6.11
				c-3.97,2.93-9.82,2.59-12.82-0.74c-0.49-0.64-0.98-1.29-1.47-1.94C31.64,84.4,31.67,84.04,31.71,83.69z"/>
			<path class="st31" d="M260.57,119.6c0-1,0.01-1.99,0.01-2.99c-0.68-4.77-1.25-9.57-3.21-14.05c-0.45-1.03-0.69-2.14,0.19-3.14
				c0,0,0.06-0.04,0.06-0.05c3.73,6.63,6.1,13.45,3,21.05c-0.25-0.17-0.34-0.35-0.27-0.54C260.42,119.7,260.49,119.6,260.57,119.6z"
				/>
			<path class="st110" d="M260.57,119.6c0.02,0.27,0.03,0.55,0.05,0.82c0.01,1.44-0.39,2.72-1.52,3.7c0.25-1.51,0.49-3.01,0.73-4.52
				C260.08,119.6,260.32,119.6,260.57,119.6z"/>
			<path class="st14" d="M247.11,141.27c0.29-1.53,0.72-2.96,2.29-3.69C249.07,139.08,248.61,140.5,247.11,141.27z"/>
			<path class="st111" d="M86.22,238.58c-0.75,0.23-1.29-0.12-1.79-0.63"/>
			<path class="st112" d="M110.19,8.86c-1.75,0.15-3.32,0.97-3.47,2.7c-0.31,3.56-2.77,4.21-5.51,4.73
				c1.19-2.26,1.11-5.23,3.73-6.71c1-0.49,2-0.97,3.01-1.46c1.04,0.09,2.2-0.37,3.05,0.64C110.76,9.07,110.49,9.1,110.19,8.86z"/>
			<path class="st113" d="M110.19,8.86c0.27-0.03,0.54-0.06,0.81-0.09c2.98-0.7,5.97-1.46,8.94,0.05c-1,0.02-2.01,0.03-3.01,0.05
				c-2.25-0.47-2.98,0.76-3.33,2.74c-0.47,2.64-1.59,4.71-4.89,3.92C108.13,13.07,110.39,11.24,110.19,8.86z"/>
			<path class="st114" d="M111.68,257.31c-3.55-2.03-7.1-4.04-10.64-6.09c-0.74-0.43-1.76-0.94-1.54-1.89
				c0.29-1.21,1.54-1.01,2.51-1.01c6.71-0.01,13.42-0.03,20.12,0c2.57,0.01,3.26-0.82,1.51-2.96c1.02-0.91,1.97-0.29,2.94,0.12
				c1.24,0.83,2.49,1.64,3.83,2.32c0.8,0.53,1.57,1.1,2.39,1.6c1,0.77,1.92,1.63,3.02,2.26c1.01,0.8,1.99,1.64,3.09,2.32
				c0.71,0.7,1.66,1.29,1.2,2.55c1.05,1.53,1.87,2.91-1.12,3.02c-6.82,0.26-13.64-0.43-20.48,0.47
				C116.19,260.34,113.9,258.43,111.68,257.31z"/>
			<path class="st115" d="M140.12,256.53c-0.51-0.73-1.03-1.47-1.54-2.2c3.33-10.04,5.93-20.29,8.58-30.52
				c0.37-1.42,0.24-3.05,1.91-3.8c0.88-0.69,1.87-1.07,3.01-0.99c0.9,3-0.86,5.58-1.5,8.28c-2.02,8.6-4.83,17-6.82,25.62
				c-0.37,1.6-1.09,3.08-2.89,3.61l-0.37,0.01L140.12,256.53z"/>
			<path class="st116" d="M140.86,256.53c3.13-3.99,3-9.07,4.43-13.61c2.5-7.89,4.54-15.92,6.77-23.89
				c0.63-0.63,1.41-0.76,2.25-0.66c-3.46,12.28-6.93,24.55-10.36,36.84c-0.27,0.98-0.24,2.03-1.61,2.1
				C141.85,257.05,141.36,256.79,140.86,256.53z"/>
			<path class="st117" d="M161.8,254.33c-0.12,0.73-0.04,1.57-0.4,2.16c-2.06,3.38-0.45,4.1,2.66,3.82
				c-0.32,0.6-0.89,0.72-1.49,0.75c-0.49,0-0.98-0.01-1.47-0.01c-5.53-0.01-5.18,0.07-4.03-5.17
				C157.95,251.86,160.26,254.85,161.8,254.33z"/>
			<path class="st105" d="M168.51,258.78c-1.14-0.36-3.16,0.91-3.32-1.14c-0.2-2.66,1.41-4.33,4.12-4.75
				c1.11,1.28,1.06,2.98,1.59,4.47C170.34,258.24,169.58,258.78,168.51,258.78z"/>
			<path class="st106" d="M170.9,257.36c-2.74-0.7-1.2-2.93-1.59-4.47c0.24-0.05,0.48-0.08,0.73-0.09c1-0.48,2-0.97,3-1.45
				c0.6,1.2-2.23,3.8,1.51,3.73C173.34,255.84,172.12,256.6,170.9,257.36z"/>
			<path class="st106" d="M174.55,255.08c0.62-1.25,1.46-2.21,2.99-2.26c-0.01,0.24-0.02,0.49-0.02,0.73
				C176.46,253.93,175.82,255.13,174.55,255.08z"/>
			<path class="st118" d="M38.26,103.93c-0.41-0.46-0.49-0.97-0.2-1.52c2.88-1.66,5.76-1.67,8.64,0.02
				c0.16,2.54-1.24,4.54-2.28,6.67c-1.2,2.57-2.47,5.1-3.73,7.64l0.02,0.05c-2.11-0.21-1.53-1.89-1.6-3.1
				C38.95,110.42,39.43,107.11,38.26,103.93z"/>
			<path class="st119" d="M126.53,246.13c2.89,1.28,4.23,0.11,4.91-2.79c1.12-4.81,2.45-9.56,3.78-14.32
				c0.35-1.27,0.52-2.21-1.13-2.43c1.28-1.18,2.79-1.89,4.49-2.25c2.09,0.42,1.48,1.99,1.13,3.14c-1.84,6.07-3.18,12.28-5.11,18.32
				c-0.64,1.99-1.62,3.83-4.31,2.57C128.79,248.03,127.45,247.44,126.53,246.13z"/>
			<path class="st120" d="M130.28,248.38c1.42-0.04,2.65-0.24,3.12-1.95c1.92-6.96,3.92-13.9,5.83-20.87
				c0.09-0.32-0.42-0.8-0.65-1.21c0.88-0.8,1.71-1.71,3.09-1.44c0.94,4.32-1.72,7.93-2.42,11.94c-0.73,4.19-2.32,8.23-3.37,12.37
				c-0.48,1.86-1.41,2.79-3.33,2.66C131.52,249.78,130.79,249.25,130.28,248.38z"/>
			<path class="st114" d="M116.93,242.23c1.41,0.13,2.78,0.36,3.71,1.61C119.17,243.84,117.81,243.58,116.93,242.23z"/>
			<path class="st110" d="M257.56,99.42c1.01,4.39,3.19,8.46,3.54,13.03c0.11,1.44,0.73,2.9-0.51,4.16
				c-2.45-0.24-5.53,1.08-7.21-0.62c-1.94-1.96,0.78-4.42,1.12-6.75c0.51-3.47-0.67-6.61-1.4-9.85
				C254.59,97.98,256.08,98.71,257.56,99.42z"/>
			<path class="st121" d="M32.39,74.72c3.64,1.47,7.45,0.39,11.17,0.73c0.28,2.16-0.5,3.22-2.84,3.01c-1.58-0.14-3.2-0.19-4.77,0.01
				C32.93,78.86,31.93,77.54,32.39,74.72z"/>
			<path class="st122" d="M112.36,27.61c-0.25,4.39-5.16,8.92-9.57,8.82C105.57,33.05,108.55,29.88,112.36,27.61z"/>
			<path class="st123" d="M247.79,103.94c-0.19,5.03-3.24,8.09-8.13,8.17C242.04,109.06,244.79,106.38,247.79,103.94z"/>
		</g>
	</g>
</g>
</svg>
